<svg width="22" height="20" viewBox="0 0 22 20" fill="none" xmlns="http://www.w3.org/2000/svg">
<path d="M4.22051 9.79557C4.08089 9.92565 4.00191 10.1081 4.0026 10.2989C4.00477 10.9002 4.72562 11.2068 5.16026 10.7913L6.96775 9.06314C7.02526 9.00294 7.09716 8.97619 7.15467 8.97619C7.21219 8.97619 7.28408 9.00294 7.34879 9.06314L9.9154 11.5314C10.2389 11.8591 10.584 11.9996 10.9435 11.9996C11.3029 11.9996 11.6337 11.8525 11.9787 11.5381L14.9336 8.77552L16.0623 9.83238C16.3643 10.1133 16.7884 9.94609 16.9035 9.54475L17.9819 5.60494C18.0897 5.23705 17.7374 4.92266 17.342 5.01631L13.1219 6.01966C12.6905 6.12668 12.5036 6.50795 12.8127 6.79558L13.9343 7.84575L11.1376 10.4879C11.0801 10.5481 11.0082 10.5815 10.9507 10.5815C10.886 10.5815 10.8213 10.5481 10.7566 10.4879L8.18995 8.01966C7.85923 7.69859 7.51414 7.55143 7.15467 7.55143C6.7952 7.55143 6.47887 7.68521 6.12659 8.01966L4.22051 9.79557Z" fill="#1D1D1D"/>
<path fill-rule="evenodd" clip-rule="evenodd" d="M0.601562 4.46055C0.601562 2.44471 2.23572 0.810547 4.25156 0.810547H17.7516C19.7674 0.810547 21.4016 2.44471 21.4016 4.46055V12.4605C21.4016 14.4764 19.7674 16.1105 17.7516 16.1105H13.5861L11.2805 19.3384C11.1644 19.5009 10.9799 19.6011 10.7803 19.6099C10.5807 19.6187 10.3881 19.5353 10.258 19.3836L7.4526 16.1105H4.25156C2.23572 16.1105 0.601562 14.4764 0.601562 12.4605V4.46055ZM4.25156 2.11055C2.95369 2.11055 1.90156 3.16268 1.90156 4.46055V12.4605C1.90156 13.7584 2.95369 14.8105 4.25156 14.8105H7.75156C7.94131 14.8105 8.12159 14.8935 8.24508 15.0375L10.705 17.9074L12.7226 15.0827C12.8446 14.9119 13.0416 14.8105 13.2516 14.8105H17.7516C19.0494 14.8105 20.1016 13.7584 20.1016 12.4605V4.46055C20.1016 3.16268 19.0494 2.11055 17.7516 2.11055H4.25156Z" fill="#1D1D1D"/>
</svg>
