<svg width="22" height="20" viewBox="0 0 22 20" fill="none" xmlns="http://www.w3.org/2000/svg">
<path d="M3.55501 20H18.4342C20.779 20 22 18.8015 22 16.5115V3.4885C22 1.1985 20.779 0 18.4342 0H3.55501C1.22102 0 0 1.1878 0 3.4885V16.5115C0 18.8015 1.22102 20 3.55501 20ZM3.5442 17.8705C2.64735 17.8705 2.15029 17.4104 2.15029 16.4687V6.62386C2.15029 5.68218 2.64735 5.22204 3.5442 5.22204H18.445C19.3418 5.22204 19.8389 5.68218 19.8389 6.62386V16.4687C19.8389 17.4104 19.3418 17.8705 18.445 17.8705H3.5442ZM5.39194 9.06367H16.6189C17.0079 9.06367 17.2996 8.76404 17.2996 8.36811C17.2996 7.99358 17.0079 7.70466 16.6189 7.70466H5.39194C4.99214 7.70466 4.70039 7.99358 4.70039 8.36811C4.70039 8.76404 4.99214 9.06367 5.39194 9.06367ZM5.39194 12.2204H16.6189C17.0079 12.2204 17.2996 11.9315 17.2996 11.557C17.2996 11.1718 17.0079 10.8614 16.6189 10.8614H5.39194C4.99214 10.8614 4.70039 11.1718 4.70039 11.557C4.70039 11.9315 4.99214 12.2204 5.39194 12.2204ZM5.39194 15.3772H12.4804C12.8694 15.3772 13.1611 15.0883 13.1611 14.7138C13.1611 14.3285 12.8694 14.0289 12.4804 14.0289H5.39194C4.99214 14.0289 4.70039 14.3285 4.70039 14.7138C4.70039 15.0883 4.99214 15.3772 5.39194 15.3772Z" fill="#101010"/>
</svg>
