<svg width="21" height="14" viewBox="0 0 21 14" fill="none" xmlns="http://www.w3.org/2000/svg">
<path d="M14.3254 7.0205C15.9256 7.0205 17.2775 5.62636 17.2775 3.8226C17.2775 2.06196 15.9183 0.710938 14.3254 0.710938C12.7397 0.710938 11.3732 2.08352 11.3805 3.83697C11.3805 5.62636 12.7251 7.0205 14.3254 7.0205ZM5.87815 7.18579C7.27384 7.18579 8.45031 5.96412 8.45031 4.3975C8.45031 2.85964 7.25923 1.68827 5.87815 1.68827C4.49708 1.68827 3.30599 2.8812 3.3133 4.41188C3.3133 5.96412 4.48977 7.18579 5.87815 7.18579ZM1.85185 13.7109H7.3323C6.55042 12.6114 7.39076 10.4412 9.0422 9.16201C8.2384 8.65179 7.19346 8.2781 5.87815 8.2781C2.6118 8.2781 0.5 10.6424 0.5 12.5899C0.5 13.3013 0.865364 13.7109 1.85185 13.7109ZM9.77293 13.7038H18.8778C20.0835 13.7038 20.5 13.3444 20.5 12.6833C20.5 10.8364 18.1105 8.29247 14.3254 8.29247C10.5329 8.29247 8.15071 10.8364 8.15071 12.6833C8.15071 13.3444 8.56723 13.7038 9.77293 13.7038Z" fill="#101010"/>
</svg>
