<svg width="17" height="20" viewBox="0 0 17 20" fill="none" xmlns="http://www.w3.org/2000/svg">
<path d="M3.48316 1.93792H13.6581C13.6031 1.2065 13.1874 0.816406 12.4264 0.816406H4.70697C3.95385 0.816406 3.53023 1.2065 3.48316 1.93792ZM1.81218 4.30286H15.2035C15.0937 3.5308 14.7093 3.08382 13.8699 3.08382H3.13798C2.29857 3.08382 1.92201 3.5308 1.81218 4.30286ZM2.58099 19.6059H14.4112C16.1057 19.6059 17 18.6957 17 16.9565V8.29319C17 6.55402 16.1057 5.64381 14.4112 5.64381H2.58099C0.878634 5.64381 0 6.5459 0 8.29319V16.9565C0 18.6957 0.878634 19.6059 2.58099 19.6059ZM8.49608 13.9333C7.13106 13.9252 6.07199 12.7467 6.06414 11.1864C6.06414 9.70727 7.1389 8.48011 8.49608 8.48011C9.8611 8.48011 10.928 9.70727 10.928 11.1864C10.928 12.7467 9.86894 13.9495 8.49608 13.9333ZM3.89894 18.0293C4.51869 16.3307 6.33087 15.1442 8.49608 15.1442C10.6691 15.1442 12.4735 16.3307 13.1011 18.0293H3.89894Z" fill="#101010"/>
</svg>
