<svg width="18" height="17" viewBox="0 0 18 17" fill="none" xmlns="http://www.w3.org/2000/svg">
<path d="M3.67969 16.415H14.3232C16.2217 16.415 17.2061 15.4307 17.2061 13.5586V2.8623C17.2061 0.981445 16.2217 0.00585938 14.3232 0.00585938H3.67969C1.78125 0.00585938 0.796875 0.981445 0.796875 2.8623V13.5586C0.796875 15.4395 1.78125 16.415 3.67969 16.415ZM3.74121 3.44238C3.74121 2.85352 4.09277 2.50195 4.69043 2.50195H6.80859C7.40625 2.50195 7.75781 2.85352 7.75781 3.44238V5.57812C7.75781 6.1582 7.40625 6.51855 6.80859 6.51855H4.69043C4.09277 6.51855 3.74121 6.1582 3.74121 5.57812V3.44238ZM4.25098 10.5703C3.91699 10.5703 3.6709 10.3154 3.6709 9.99023C3.6709 9.68262 3.91699 9.43652 4.25098 9.43652H12.9521C13.2773 9.43652 13.5234 9.68262 13.5234 9.99023C13.5234 10.3154 13.2773 10.5703 12.9521 10.5703H4.25098ZM4.25098 13.5762C3.91699 13.5762 3.6709 13.3389 3.6709 13.0225C3.6709 12.6973 3.91699 12.4424 4.25098 12.4424H10.7285C11.0537 12.4424 11.2998 12.6973 11.2998 13.0225C11.2998 13.3389 11.0537 13.5762 10.7285 13.5762H4.25098Z" fill="#101010"/>
</svg>
