<svg width="21" height="17" viewBox="0 0 21 17" fill="none" xmlns="http://www.w3.org/2000/svg">
<path d="M6.12815 5.45226C6.29387 5.45226 6.45281 5.38643 6.56999 5.26924C6.68718 5.15206 6.75301 4.99312 6.75301 4.8274C6.75301 4.66167 6.68718 4.50274 6.56999 4.38555C6.45281 4.26837 6.29387 4.20254 6.12815 4.20254H5.50329V2.95281C5.50329 2.78709 5.43745 2.62815 5.32027 2.51097C5.20308 2.39378 5.04415 2.32795 4.87842 2.32795C4.7127 2.32795 4.55376 2.39378 4.43658 2.51097C4.3194 2.62815 4.25356 2.78709 4.25356 2.95281V4.8274C4.25356 4.99312 4.3194 5.15206 4.43658 5.26924C4.55376 5.38643 4.7127 5.45226 4.87842 5.45226H6.12815Z" fill="#101010"/>
<path d="M20.3157 9.07334L19.1628 7.92047L18.2724 5.54599C18.2279 5.4269 18.1481 5.3242 18.0437 5.25163C17.9393 5.17906 17.8153 5.14006 17.6881 5.13983H16.4384C16.2727 5.13983 16.1137 5.20567 15.9965 5.32285C15.8794 5.44004 15.8135 5.59897 15.8135 5.7647C15.8135 5.93042 15.8794 6.08936 15.9965 6.20654C16.1137 6.32373 16.2727 6.38956 16.4384 6.38956H17.2538L18.038 8.48285C18.0696 8.56619 18.1186 8.64183 18.1818 8.70468L19.2503 9.77319V12.3258H17.6631C17.3615 11.8046 16.8819 11.4099 16.3125 11.2142C15.743 11.0185 15.1221 11.0349 14.5638 11.2604V4.25253C14.5638 4.07355 14.4927 3.9019 14.3661 3.77534C14.2396 3.64878 14.0679 3.57768 13.889 3.57768H9.06814C8.86101 2.87806 8.48217 2.24137 7.96609 1.72558C7.45002 1.20979 6.81312 0.831298 6.11338 0.624563C5.41365 0.417828 4.67331 0.38942 3.95979 0.541926C3.24627 0.694432 2.58224 1.02301 2.02816 1.49773C1.47408 1.97245 1.04755 2.57824 0.787425 3.25993C0.527297 3.94162 0.441831 4.67755 0.538809 5.40072C0.635787 6.12388 0.912128 6.81129 1.34267 7.40036C1.77321 7.98943 2.34427 8.46144 3.00385 8.77341V12.9006C3.00385 13.0796 3.07495 13.2513 3.20151 13.3778C3.32806 13.5044 3.49972 13.5755 3.6787 13.5755H3.94114C3.94114 14.2384 4.20447 14.8741 4.67321 15.3429C5.14195 15.8116 5.7777 16.0749 6.44059 16.0749C7.10349 16.0749 7.73923 15.8116 8.20797 15.3429C8.67671 14.8741 8.94004 14.2384 8.94004 13.5755H13.0016C13.0016 14.2384 13.265 14.8741 13.7337 15.3429C14.2025 15.8116 14.8382 16.0749 15.5011 16.0749C16.164 16.0749 16.7997 15.8116 17.2685 15.3429C17.7372 14.8741 18.0005 14.2384 18.0005 13.5755H19.8751C20.0409 13.5755 20.1998 13.5096 20.317 13.3925C20.4342 13.2753 20.5 13.1163 20.5 12.9506V9.51387C20.4993 9.34842 20.433 9.18999 20.3157 9.07334ZM1.75412 4.8274C1.75412 4.20947 1.93736 3.60542 2.28066 3.09163C2.62397 2.57784 3.11192 2.17739 3.68281 1.94091C4.2537 1.70444 4.8819 1.64257 5.48796 1.76312C6.09401 1.88368 6.65071 2.18124 7.08766 2.61818C7.5246 3.05512 7.82216 3.61182 7.94272 4.21788C8.06327 4.82394 8.0014 5.45213 7.76492 6.02303C7.52845 6.59392 7.128 7.08187 6.61421 7.42517C6.10042 7.76848 5.49637 7.95172 4.87843 7.95172C4.04981 7.95172 3.25513 7.62255 2.66921 7.03663C2.08329 6.4507 1.75412 5.65602 1.75412 4.8274ZM6.44059 14.8252C6.19342 14.8252 5.9518 14.7519 5.74628 14.6146C5.54076 14.4773 5.38058 14.2821 5.286 14.0537C5.19141 13.8254 5.16666 13.5741 5.21488 13.3317C5.2631 13.0892 5.38212 12.8666 5.5569 12.6918C5.73168 12.517 5.95436 12.398 6.19678 12.3498C6.4392 12.3015 6.69048 12.3263 6.91884 12.4209C7.1472 12.5155 7.34238 12.6757 7.4797 12.8812C7.61702 13.0867 7.69032 13.3283 7.69032 13.5755C7.69032 13.9069 7.55865 14.2248 7.32428 14.4592C7.08991 14.6935 6.77204 14.8252 6.44059 14.8252ZM15.5011 14.8252C15.2539 14.8252 15.0123 14.7519 14.8068 14.6146C14.6013 14.4773 14.4411 14.2821 14.3465 14.0537C14.2519 13.8254 14.2272 13.5741 14.2754 13.3317C14.3236 13.0892 14.4426 12.8666 14.6174 12.6918C14.7922 12.517 15.0149 12.398 15.2573 12.3498C15.4997 12.3015 15.751 12.3263 15.9793 12.4209C16.2077 12.5155 16.4029 12.6757 16.5402 12.8812C16.6775 13.0867 16.7508 13.3283 16.7508 13.5755C16.7508 13.9069 16.6192 14.2248 16.3848 14.4592C16.1504 14.6935 15.8325 14.8252 15.5011 14.8252Z" fill="#101010"/>
</svg>
